<svg width="16" height="18" viewBox="0 0 16 18" fill="none" xmlns="http://www.w3.org/2000/svg">
<path d="M8.00028 8.99999C6.97234 8.99999 5.9784 8.53056 5.20044 7.67863C4.44399 6.84766 3.98201 5.73954 3.90052 4.55931C3.81352 3.30034 4.189 2.14261 4.95746 1.29886C5.72591 0.455113 6.80035 0 8.00028 0C9.19171 0 10.2692 0.463295 11.0351 1.305C11.8086 2.15488 12.185 3.31056 12.098 4.5588C12.0145 5.74056 11.5531 6.84817 10.7981 7.67812C10.0222 8.53056 9.02872 8.99999 8.00028 8.99999ZM14.5914 18H1.40966C1.19773 18.0011 0.988363 17.9526 0.797672 17.858C0.606982 17.7634 0.44005 17.6253 0.309725 17.4544C0.171485 17.2691 0.0760202 17.0542 0.0304776 16.8258C-0.015065 16.5974 -0.00950509 16.3614 0.0467412 16.1356C0.467717 14.4066 1.51066 12.9728 3.06257 11.9894C4.43999 11.117 6.19339 10.6364 8.00028 10.6364C9.84268 10.6364 11.5501 11.0966 12.9355 11.9685C14.4909 12.9467 15.5353 14.3887 15.9543 16.1386C16.0099 16.3647 16.0148 16.6006 15.9688 16.8289C15.9227 17.0572 15.8269 17.2718 15.6883 17.4569C15.5581 17.6271 15.3916 17.7645 15.2015 17.8586C15.0113 17.9527 14.8026 18.0011 14.5914 18Z" fill="#00B488"/>
</svg>
