<svg width="18" height="14" viewBox="0 0 18 14" fill="none" xmlns="http://www.w3.org/2000/svg">
<path d="M16.2 14H1.8C1.32261 14 0.864773 13.8156 0.527208 13.4874C0.189642 13.1592 0 12.7141 0 12.25V1.75C0 1.28587 0.189642 0.840752 0.527208 0.512563C0.864773 0.184374 1.32261 0 1.8 0H16.2C16.6774 0 17.1352 0.184374 17.4728 0.512563C17.8104 0.840752 18 1.28587 18 1.75V12.25C18 12.7141 17.8104 13.1592 17.4728 13.4874C17.1352 13.8156 16.6774 14 16.2 14ZM2.7 7.875V9.625H12.6V7.875H2.7ZM2.7 4.375V6.125H15.3V4.375H2.7Z" fill="#00B488"/>
</svg>
