<svg width="10" height="11" viewBox="0 0 10 11" fill="none" xmlns="http://www.w3.org/2000/svg">
<path d="M6.91017 1.77464C7.05272 1.63209 7.12399 1.56082 7.19505 1.51334C7.48685 1.31837 7.86737 1.31837 8.15917 1.51334C8.23023 1.56082 8.3015 1.63209 8.44405 1.77464C8.58659 1.91718 8.65786 1.98846 8.70534 2.05951C8.90032 2.35132 8.90032 2.73184 8.70534 3.02364C8.65786 3.0947 8.58659 3.16597 8.44405 3.30851L3.74394 8.00862C3.62917 8.12339 3.57178 8.18078 3.50519 8.22633C3.43859 8.27189 3.36431 8.30457 3.21575 8.36994L2.81693 8.54542C1.95508 8.92463 1.52415 9.11424 1.3143 8.90439C1.10445 8.69453 1.29405 8.26361 1.67327 7.40176L1.84874 7.00294C1.91411 6.85437 1.9468 6.78009 1.99235 6.7135C2.03791 6.6469 2.09529 6.58952 2.21007 6.47475L6.91017 1.77464Z" fill="#00B488" stroke="#FCFFFE" stroke-width="0.86769" stroke-linecap="round"/>
<path d="M5.72021 2.94921L7.25409 4.48309" stroke="#FCFFFE" stroke-width="0.86769"/>
</svg>
