<svg width="16" height="16" viewBox="0 0 16 16" fill="none" xmlns="http://www.w3.org/2000/svg">
<path d="M0 16V1.77778C0 1.28889 0.19006 0.870222 0.570182 0.521778C0.949656 0.173926 1.40606 0 1.93939 0H7.75758C8.29091 0 8.74764 0.173926 9.12776 0.521778C9.50723 0.870222 9.69697 1.28889 9.69697 1.77778V8H10.6667C11.2 8 11.6567 8.17393 12.0368 8.52178C12.4163 8.87022 12.6061 9.28889 12.6061 9.77778V13.7778C12.6061 14.0296 12.6992 14.2406 12.8853 14.4107C13.0709 14.5813 13.301 14.6667 13.5758 14.6667C13.8505 14.6667 14.0806 14.5813 14.2662 14.4107C14.4524 14.2406 14.5455 14.0296 14.5455 13.7778V7.37778C14.4 7.45185 14.2465 7.49985 14.0848 7.52178C13.9232 7.5443 13.7535 7.55556 13.5758 7.55556C12.897 7.55556 12.3232 7.34074 11.8545 6.91111C11.3859 6.48148 11.1515 5.95556 11.1515 5.33333C11.1515 4.85926 11.2931 4.43319 11.5762 4.05511C11.8587 3.67763 12.2343 3.40741 12.703 3.24444L10.6667 1.37778L11.6848 0.444444L15.2727 3.64444C15.5152 3.86667 15.6968 4.12593 15.8177 4.42222C15.9392 4.71852 16 5.02222 16 5.33333V13.7778C16 14.4 15.7657 14.9259 15.297 15.3556C14.8283 15.7852 14.2545 16 13.5758 16C12.897 16 12.3232 15.7852 11.8545 15.3556C11.3859 14.9259 11.1515 14.4 11.1515 13.7778V9.33333H9.69697V16H0ZM1.93939 6.22222H7.75758V1.77778H1.93939V6.22222ZM13.5758 6.22222C13.8505 6.22222 14.0806 6.13689 14.2662 5.96622C14.4524 5.79615 14.5455 5.58519 14.5455 5.33333C14.5455 5.08148 14.4524 4.87022 14.2662 4.69956C14.0806 4.52948 13.8505 4.44444 13.5758 4.44444C13.301 4.44444 13.0709 4.52948 12.8853 4.69956C12.6992 4.87022 12.6061 5.08148 12.6061 5.33333C12.6061 5.58519 12.6992 5.79615 12.8853 5.96622C13.0709 6.13689 13.301 6.22222 13.5758 6.22222Z" fill="#00B488"/>
</svg>
