<svg width="17" height="19" viewBox="0 0 17 19" fill="none" xmlns="http://www.w3.org/2000/svg">
<path d="M10.3889 9.025C10.699 9.025 11.006 8.96357 11.2924 8.84421C11.5789 8.72486 11.8392 8.54992 12.0584 8.32938C12.2777 8.10884 12.4516 7.84702 12.5703 7.55887C12.6889 7.27073 12.75 6.96189 12.75 6.65C12.75 6.02011 12.5012 5.41602 12.0584 4.97062C11.6157 4.52522 11.0151 4.275 10.3889 4.275C9.76268 4.275 9.16213 4.52522 8.71933 4.97062C8.27654 5.41602 8.02778 6.02011 8.02778 6.65C8.02778 6.96189 8.08885 7.27073 8.20751 7.55887C8.32616 7.84702 8.50008 8.10884 8.71933 8.32938C9.16213 8.77478 9.76268 9.025 10.3889 9.025ZM10.3889 0C14.0344 0 17 2.9735 17 6.65C17 11.6375 10.3889 19 10.3889 19C10.3889 19 3.77778 11.6375 3.77778 6.65C3.77778 4.88631 4.4743 3.19486 5.71413 1.94774C6.95395 0.700623 8.63551 0 10.3889 0ZM1.88889 6.65C1.88889 10.925 6.68667 16.777 7.55556 17.8695L6.61111 19C6.61111 19 0 11.6375 0 6.65C0 3.6385 1.99278 1.0925 4.72222 0.2755C2.98444 1.843 1.88889 4.1135 1.88889 6.65Z" fill="#00B488"/>
</svg>
