<svg width="19" height="19" viewBox="0 0 19 19" fill="none" xmlns="http://www.w3.org/2000/svg">
<path d="M9.5 0C4.275 0 0 4.275 0 9.5C0 14.725 4.275 19 9.5 19C14.725 19 19 14.725 19 9.5C19 4.275 14.725 0 9.5 0ZM6.4885 4.7975C7.4195 4.7975 8.17 5.548 8.17 6.4885C8.17 7.4195 7.4195 8.17 6.4885 8.17C5.548 8.17 4.7975 7.4195 4.7975 6.4885C4.7975 5.548 5.548 4.7975 6.4885 4.7975ZM12.559 14.25C11.628 14.25 10.8775 13.49 10.8775 12.559C10.8775 11.628 11.628 10.8775 12.559 10.8775C13.49 10.8775 14.25 11.628 14.25 12.559C14.25 13.49 13.49 14.25 12.559 14.25ZM6.175 14.2785L4.75 12.8535L12.8535 4.75L14.2785 6.175L6.175 14.2785Z" fill="#00B488"/>
</svg>
